P2
6 48
255
0 0 0 0 208 255 255 255 255 255 255 255 255 255 255 255 255 255 255 255 255 255 255 255 255 255 255 255 255 255 255 255 255 255 255 255 255 255 255 255 255 255 255 255 255 255 255 255 
255 255 255 255 255 223 255 255 225 255 255 255 223 255 255 255 208 255 255 223 191 255 208 255 255 255 255 255 182 187 255 191 255 255 0 208 255 255 255 255 255 255 255 255 255 255 255 182 
255 255 255 255 255 255 67 217 255 67 255 255 255 111 119 237 255 235 255 255 255 139 255 241 255 255 255 255 255 255 215 255 117 210 255 255 255 255 255 255 255 255 255 231 255 255 255 255 
255 255 255 255 255 255 233 255 255 233 255 255 255 235 236 210 255 255 230 255 255 234 255 222 255 255 255 255 255 255 204 255 238 225 255 255 255 255 255 255 255 255 255 255 255 255 255 255 
255 255 255 255 255 255 255 255 255 255 169 19 255 255 255 255 255 255 255 255 255 255 255 255 255 255 255 255 255 255 255 255 255 255 255 255 255 42 255 255 42 255 182 255 174 182 174 255 
255 255 255 255 255 221 255 255 223 255 255 255 221 255 255 255 204 255 255 221 182 255 204 255 255 255 255 255 0 218 255 182 255 255 182 204 255 255 255 255 255 255 255 255 255 255 255 0 
